<?xml version="1.0" encoding="utf-8"?>
<svg width="2146" height="744" xmlns="http://www.w3.org/2000/svg" xmlns:bx="https://boxy-svg.com">
  <defs>
    <linearGradient id="d" x1="43.176%" x2="50%" y1="12.436%" y2="97.744%">
      <stop offset="0" stop-color="#A855F7"/>
      <stop offset="1" stop-color="#6366F1"/>
    </linearGradient>
    <linearGradient id="f" x1="19.609%" x2="50%" y1="14.544%" y2="100%">
      <stop offset="0" stop-color="#6366F1"/>
      <stop offset="1" stop-color="#6366F1" stop-opacity="0"/>
    </linearGradient>
    <filter id="e" width="145.2%" height="187%" x="-22.6%" y="-43.5%" filterUnits="objectBoundingBox">
      <feGaussianBlur in="SourceGraphic" stdDeviation="50"/>
    </filter>
    <filter id="g" width="165.1%" height="170.3%" x="-32.5%" y="-35.1%" filterUnits="objectBoundingBox">
      <feGaussianBlur in="SourceGraphic" stdDeviation="50"/>
    </filter>
    <radialGradient id="c" cx="50%" cy="100%" r="77.678%" gradientTransform="matrix(0 -1 .37746 0 .123 1.5)">
      <stop offset="0" stop-color="#E9D5FF"/>
      <stop offset="0.2235" stop-color="#A855F7"/>
      <stop offset="1" stop-color="#0F172A" stop-opacity="0"/>
    </radialGradient>
    <path id="a" d="M0 0h2440v921H0z"/>
    <filter id="hue-rotate-filter-0" color-interpolation-filters="sRGB" x="-50%" y="-50%" width="200%" height="200%">
      <title>Hue rotate</title>
      <feColorMatrix type="hueRotate" values="-45"/>
    </filter>
    <filter id="brightness-filter-0" color-interpolation-filters="sRGB" x="-50%" y="-50%" width="200%" height="200%" bx:preset="brightness 1 0.85">
      <feComponentTransfer>
        <feFuncR type="linear" slope="0.85"/>
        <feFuncG type="linear" slope="0.85"/>
        <feFuncB type="linear" slope="0.85"/>
      </feComponentTransfer>
    </filter>
  </defs>
  <g fill="none" fill-rule="evenodd" transform="translate(-140 -177)" style="filter: url(#hue-rotate-filter-0) url(#brightness-filter-0);">
    <mask id="b" fill="#fff">
      <path d="M0 0h2440v921H0z"/>
    </mask>
    <g mask="url(#b)">
      <path fill="url(#c)" d="M0 0h2440v921H0z"/>
      <path fill="url(#d)" fill-rule="nonzero" d="M1975.72 781.763c-3.682-3-8.757-3.61-13.042-1.568a12.323 12.323 0 0 0-7.014 11.129v98.57h-430.368c-6.79 0-12.296 5.516-12.296 12.321v98.57c0 6.805 5.505 12.321 12.296 12.321h430.368v98.57a12.323 12.323 0 0 0 7.014 11.129 12.276 12.276 0 0 0 13.042-1.568l196.74-160.176a12.33 12.33 0 0 0 4.54-9.561 12.33 12.33 0 0 0-4.54-9.561l-196.74-160.176Z" filter="url(#e)"/>
      <path fill="url(#f)" d="m913 274 461 369-284 58z" filter="url(#g)"/>
    </g>
  </g>
</svg>